<?xml version="1.0" encoding="utf-8"?>
<!DOCTYPE svg PUBLIC "-//W3C//DTD SVG 1.1//EN" "http://www.w3.org/Graphics/SVG/1.1/DTD/svg11.dtd">
<svg version="1.1" id="Layer_1" xmlns="http://www.w3.org/2000/svg" xmlns:xlink="http://www.w3.org/1999/xlink" 
	 width="100%" height="100%" viewBox="0 0 1200 1200">
<path fill="#27346A" d="M942.491,111.714C889.243,51.021,792.987,25,669.847,25H312.46c-25.169,0.001-46.603,18.302-50.547,43.16
	l-148.809,943.784c-2.959,18.61,11.452,35.464,30.315,35.464h220.638l55.412-351.467l-1.719,11.005
	c3.948-24.844,25.195-43.167,50.355-43.167h104.847c205.971,0,367.25-83.661,414.362-325.672c1.397-7.158,2.608-14.125,3.655-20.931
	c-5.944-3.148-5.944-3.148,0,0C1005,227.727,990.876,166.839,942.491,111.714"/>
<path fill="#27346A" d="M503.894,284.954c6.032-2.873,12.63-4.361,19.311-4.357H803.39c33.179,0,64.124,2.159,92.403,6.711
	c7.913,1.262,15.785,2.769,23.604,4.518c11.084,2.444,22.039,5.438,32.826,8.969c13.903,4.644,26.852,10.051,38.75,16.383
	c14.025-89.483-0.1-150.338-48.482-205.463C889.213,51.021,792.987,25,669.847,25H312.429c-25.165,0-46.572,18.32-50.517,43.16
	l-148.81,943.75c-2.958,18.641,11.453,35.472,30.285,35.472h220.668l114.962-729.028
	C481.313,303.808,490.615,291.32,503.894,284.954L503.894,284.954z"/>
<path fill="#2790C3" d="M987.313,338.107c-47.111,241.978-208.387,325.672-414.361,325.672H468.075
	c-25.161,0-46.412,18.324-50.321,43.168l-68.936,437.008c-2.576,16.286,10.02,31.045,26.499,31.045H561.31
	c22.011-0.006,40.748-16.017,44.188-37.756l1.813-9.479L642.364,905.6l2.259-12.278c3.439-21.738,22.175-37.749,44.186-37.757
	h27.835c180.173,0,321.251-73.196,362.478-284.894c17.208-88.467,8.304-162.33-37.218-214.21
	c-13.809-15.714-30.954-28.69-50.93-39.285C989.89,324.017,988.717,330.949,987.313,338.107L987.313,338.107z"/>
<path fill="#1F264F" d="M941.666,297.519c-7.346-2.145-14.761-4.044-22.233-5.693c-7.823-1.722-15.694-3.217-23.604-4.487
	c-28.311-4.582-59.232-6.745-92.441-6.745H523.235c-6.687-0.016-13.289,1.486-19.311,4.392
	c-13.295,6.347-22.604,18.844-24.878,33.399L419.5,695.941l-1.72,11.005c3.917-24.843,25.165-43.167,50.33-43.167h104.877
	c205.971,0,367.246-83.661,414.357-325.672c1.402-7.158,2.579-14.095,3.661-20.931c-11.931-6.298-24.844-11.739-38.75-16.352
	c-3.51-1.164-7.038-2.267-10.586-3.306"/>
</svg>
