<?xml version="1.0" encoding="UTF-8" standalone="no"?>
<svg width="123px" height="33px" viewBox="0 0 123 33" version="1.1" xmlns="http://www.w3.org/2000/svg" xmlns:xlink="http://www.w3.org/1999/xlink" xmlns:sketch="http://www.bohemiancoding.com/sketch/ns">
    <defs></defs>
    <g id="Page-1" stroke="none" stroke-width="1" fill="none" fill-rule="evenodd" sketch:type="MSPage">
        <g id="braintree-paypal" sketch:type="MSLayerGroup" transform="translate(-1.000000, -1.000000)" fill="#61605E">
            <g id="Onboarding-Flow" sketch:type="MSShapeGroup">
                <g id="Apply---Personal-Info">
                    <g id="Header">
                        <g id="Logo-+-INSTANT" transform="translate(0.883723, 0.594712)">
                            <g id="logo" transform="translate(0.116277, 0.405288)">
                                <path d="M88.6058633,22.0132188 L87.3359146,29.9414688 C87.3113846,30.0947813 87.4326325,30.2336563 87.5903248,30.2336563 L88.8679829,30.2336563 C89.0803419,30.2336563 89.2597607,30.0824063 89.292,29.8768438 L90.5444274,22.0915938 C90.5696581,21.9375938 90.4477094,21.7987188 90.2900171,21.7987188 L88.8602735,21.7987188 C88.7341197,21.7987188 88.6261881,21.8901563 88.6058633,22.0132188 L88.6058633,22.0132188 Z M77.6066496,21.7987188 L74.5116752,21.7987188 C74.2993163,21.7987188 74.1191966,21.9499688 74.0869573,22.1555313 L72.8359317,29.9414688 C72.8114017,30.0947813 72.9326496,30.2336563 73.0896411,30.2336563 L74.6791795,30.2336563 C74.8270599,30.2336563 74.9532137,30.1284688 74.9763419,29.9847813 L75.3309744,27.7772188 C75.3646154,27.5723438 75.5447351,27.4210938 75.7556923,27.4210938 L76.7347864,27.4210938 C78.7735727,27.4210938 79.9510086,26.4537813 80.2579829,24.5349688 C80.3960513,23.6955313 80.2635898,23.0355313 79.8627009,22.5749063 C79.423265,22.0675313 78.6425128,21.7987188 77.6066496,21.7987188 L77.6066496,21.7987188 Z M77.9640855,24.6429062 C77.7944787,25.7325937 76.9464445,25.7325937 76.1264445,25.7325937 L75.6589744,25.7325937 L75.9862735,23.6975937 C76.0065983,23.5745312 76.1145299,23.4837812 76.2413846,23.4837812 L76.4558462,23.4837812 C77.0137265,23.4837812 77.542171,23.4837812 77.8141026,23.7952187 C77.9767009,23.9829062 78.0250599,24.2599687 77.9640855,24.6429062 L77.9640855,24.6429062 Z M55.5290257,21.7987188 L52.4340513,21.7987188 C52.2223932,21.7987188 52.0422735,21.9499688 52.0093334,22.1555313 L50.756906,29.9414688 C50.7323761,30.0947813 50.8529231,30.2336563 51.0120171,30.2336563 L52.4901197,30.2336563 C52.7017778,30.2336563 52.8818975,30.0824063 52.9148376,29.8768438 L53.2526496,27.7765313 C53.2862906,27.5716563 53.4657094,27.4204063 53.6773675,27.4204063 L54.6564616,27.4204063 C56.6952479,27.4204063 57.8719829,26.4530938 58.1796581,24.5342813 C58.3184274,23.6948438 58.185265,23.0348438 57.785077,22.5742188 C57.3449402,22.0675313 56.5648889,21.7987188 55.5290257,21.7987188 L55.5290257,21.7987188 Z M55.8864616,24.6429062 C55.7168547,25.7325937 54.8688205,25.7325937 54.0474188,25.7325937 L53.5806496,25.7325937 L53.9086496,23.6975937 C53.9282735,23.5745312 54.036906,23.4837812 54.1630599,23.4837812 L54.3775214,23.4837812 C54.9361026,23.4837812 55.4638462,23.4837812 55.7364787,23.7952187 C55.8983761,23.9829062 55.9481368,24.2599687 55.8864616,24.6429062 L55.8864616,24.6429062 Z M64.7810086,24.6071562 L63.2987009,24.6071562 C63.1718462,24.6071562 63.0639146,24.6985937 63.0442906,24.8216562 L62.9784103,25.2286562 L62.8753846,25.0808437 C62.5543932,24.6236562 61.8388205,24.4703437 61.1246496,24.4703437 C59.487453,24.4703437 58.088547,25.6879062 57.8159146,27.3956562 C57.6743419,28.2467812 57.8754872,29.0607812 58.3681881,29.6286562 C58.8209402,30.1511562 59.4657265,30.3690937 60.2345641,30.3690937 C61.5549744,30.3690937 62.2873675,29.5372187 62.2873675,29.5372187 L62.2207864,29.9414687 C62.1962564,30.0947812 62.3175043,30.2336562 62.4751966,30.2336562 L63.809624,30.2336562 C64.0219829,30.2336562 64.2021026,30.0824062 64.2343419,29.8768437 L65.0361197,24.9007187 C65.0606496,24.7460312 64.9401026,24.6071562 64.7810086,24.6071562 L64.7810086,24.6071562 Z M62.7148889,27.4375937 C62.5719146,28.2680937 61.8997949,28.8256562 61.0419487,28.8256562 C60.6123248,28.8256562 60.2682052,28.6902187 60.0467351,28.4337812 C59.8273675,28.1800937 59.7446667,27.8170937 59.8147522,27.4128437 C59.9479146,26.5892187 60.630547,26.0137812 61.4757778,26.0137812 C61.8962906,26.0137812 62.2383077,26.1505937 62.4632821,26.4097812 C62.6910599,26.6703437 62.7807693,27.0347187 62.7148889,27.4375937 L62.7148889,27.4375937 Z M86.8586325,24.6071562 L85.3770257,24.6071562 C85.2487693,24.6071562 85.1415385,24.6985937 85.1219146,24.8216562 L85.0567351,25.2286562 L84.9537094,25.0808437 C84.6320171,24.6236562 83.9171453,24.4703437 83.2029744,24.4703437 C81.565077,24.4703437 80.166171,25.6879062 79.8935385,27.3956562 C79.7526667,28.2467812 79.9531111,29.0607812 80.4451111,29.6286562 C80.8978633,30.1511562 81.5426496,30.3690937 82.3121881,30.3690937 C83.6318975,30.3690937 84.3649915,29.5372187 84.3649915,29.5372187 L84.2984103,29.9414687 C84.2731795,30.0947812 84.3944274,30.2336562 84.5528205,30.2336562 L85.8879487,30.2336562 C86.098906,30.2336562 86.2797265,30.0824062 86.3119658,29.8768437 L87.1137436,24.9007187 C87.1389744,24.7460312 87.0177265,24.6071562 86.8586325,24.6071562 L86.8586325,24.6071562 Z M84.7932137,27.4375937 C84.6509402,28.2680937 83.9781197,28.8256562 83.1202735,28.8256562 C82.6906496,28.8256562 82.3465299,28.6902187 82.1250599,28.4337812 C81.9049915,28.1800937 81.8229915,27.8170937 81.8923761,27.4128437 C82.0255385,26.5892187 82.7088718,26.0137812 83.5534017,26.0137812 C83.9753163,26.0137812 84.3159317,26.1505937 84.5416069,26.4097812 C84.7693846,26.6703437 84.8583932,27.0347187 84.7932137,27.4375937 L84.7932137,27.4375937 Z M72.6761368,24.6071562 L71.1854188,24.6071562 C71.0431453,24.6071562 70.9099829,24.6765937 70.8293846,24.7927812 L68.7744787,27.7620937 L67.9033163,24.9089687 C67.8486496,24.7302187 67.6818462,24.6078437 67.4912137,24.6078437 L66.0264274,24.6078437 C65.849812,24.6078437 65.7250599,24.7783437 65.7818291,24.9433437 L67.4225299,29.6664687 L65.8799487,31.8011562 C65.7587009,31.9695937 65.8806496,32.2012812 66.0902052,32.2012812 L67.5788205,32.2012812 C67.7196923,32.2012812 67.8521539,32.1332187 67.9320513,32.0197812 L72.887094,25.0052187 C73.0062393,24.8367812 72.8842906,24.6071562 72.6761368,24.6071562 L72.6761368,24.6071562 Z M43.6964957,28.6434688 L42.7538462,30.2281563 L42.06,30.2281563 L45.6273504,24.3823438 L47.2414188,30.2281563 L46.5398633,30.2281563 L46.1249573,28.6434688 L43.6964957,28.6434688 L43.6964957,28.6434688 Z M45.378547,25.8322813 L44.0434188,28.0666563 L45.9665641,28.0666563 L45.378547,25.8322813 L45.378547,25.8322813 Z M98.3288205,25.8804062 C97.9538633,25.4245937 97.3777607,25.1454687 96.7245641,25.1454687 C95.4644274,25.1454687 94.2722735,26.2193437 94.0774359,27.4403437 C93.8755898,28.6613437 94.7299317,29.7352187 95.997077,29.7352187 C96.6348547,29.7352187 97.3097778,29.4409687 97.8263077,29.0002812 L97.7064616,29.7647812 C97.1597949,30.1099062 96.5290257,30.3085937 95.9297949,30.3085937 C94.332547,30.3085937 93.184547,29.0360312 93.4396581,27.4616562 C93.6940684,25.8728437 95.2317436,24.5707187 96.850718,24.5707187 C97.4814872,24.5707187 98.0141368,24.7480937 98.4563761,25.1152187 L98.3288205,25.8804062 L98.3288205,25.8804062 Z M98.3589573,28.4908438 C98.5229573,27.4754063 99.4768205,26.6600313 100.510581,26.6600313 C101.545744,26.6600313 102.227675,27.4760938 102.062974,28.4908438 C101.898974,29.5069688 100.945812,30.3079063 99.918359,30.3079063 C98.890906,30.3079063 98.1935556,29.5069688 98.3589573,28.4908438 L98.3589573,28.4908438 Z M98.9588889,28.4839688 C98.8467522,29.1900313 99.2665641,29.7640938 100.008769,29.7640938 C100.750974,29.7640938 101.351607,29.1900313 101.463744,28.4839688 C101.57588,27.7847813 101.163778,27.2052188 100.421573,27.2052188 C99.6793675,27.2052188 99.0710257,27.7847813 98.9588889,28.4839688 L98.9588889,28.4839688 Z M103.407214,27.1302813 L103.421231,27.1302813 C103.661624,26.8435938 103.991726,26.6600313 104.351265,26.6600313 C104.764769,26.6600313 105.101179,26.8731563 105.229436,27.2340938 C105.499265,26.8504688 105.956222,26.6600313 106.383043,26.6600313 C107.283641,26.6600313 107.388769,27.3805313 107.268222,28.1079063 L106.931812,30.2123438 L106.33188,30.2123438 L106.654273,28.2041563 C106.728564,27.7559063 106.788838,27.2045313 106.174188,27.2045313 C105.485248,27.2045313 105.303726,27.8583438 105.214017,28.3808438 L104.922462,30.2123438 L104.321829,30.2123438 L104.637915,28.2495313 C104.705197,27.8225938 104.75706,27.2045313 104.180957,27.2045313 C103.475197,27.2045313 103.288068,27.9030313 103.198359,28.4248438 L102.913111,30.2123438 L102.31388,30.2123438 L102.868957,26.7549063 L103.467487,26.7549063 L103.407214,27.1302813 L103.407214,27.1302813 Z M108.670632,27.2478438 L108.68535,27.2478438 C109.037179,26.8655938 109.510256,26.6607188 109.998051,26.6607188 C111.032513,26.6607188 111.542034,27.5352188 111.385043,28.4915313 C111.22665,29.4780938 110.455009,30.3085938 109.397419,30.3085938 C108.918034,30.3085938 108.505231,30.1030313 108.279556,29.7283438 L108.264838,29.7283438 L107.874462,32.1552188 L107.275231,32.1552188 L108.144991,26.7555938 L108.744222,26.7555938 L108.670632,27.2478438 L108.670632,27.2478438 Z M108.446359,28.4482187 C108.334222,29.1240312 108.641197,29.7640937 109.39041,29.7640937 C110.163453,29.7640937 110.665265,29.1535937 110.778103,28.4550937 C110.890239,27.7634687 110.53841,27.2052187 109.795504,27.2052187 C109.098855,27.2045312 108.550786,27.7999062 108.446359,28.4482187 L108.446359,28.4482187 Z M115.016171,30.2123438 L114.415538,30.2123438 L114.49053,29.7345313 L114.475812,29.7345313 C114.107863,30.1174688 113.664923,30.3079063 113.17082,30.3079063 C112.135658,30.3079063 111.617726,29.4485313 111.775419,28.4908438 C111.933812,27.5049688 112.713162,26.6600313 113.770752,26.6600313 C114.250838,26.6600313 114.648222,26.8807188 114.880205,27.2471563 L114.895624,27.2471563 L114.969214,26.7542188 L115.570547,26.7542188 L115.016171,30.2123438 L115.016171,30.2123438 Z M112.399179,28.4482188 C112.286342,29.1240313 112.593316,29.7640938 113.343932,29.7640938 C114.116273,29.7640938 114.618085,29.1535938 114.731624,28.4550938 C114.84306,27.7634688 114.49053,27.2052188 113.748325,27.2052188 C113.050974,27.2045313 112.503607,27.7999063 112.399179,28.4482188 L112.399179,28.4482188 Z M116.733265,27.1742813 L116.747983,27.1742813 C117.054957,26.8435938 117.407487,26.6600313 117.842718,26.6600313 C118.818308,26.6600313 118.930444,27.3516563 118.794479,28.1608438 L118.464376,30.2123438 L117.865145,30.2123438 L118.179128,28.2632813 C118.269538,27.7043438 118.307385,27.2045313 117.609333,27.2045313 C116.785128,27.2045313 116.612718,27.9539063 116.508291,28.5712813 L116.24547,30.2123438 L115.646239,30.2123438 L116.200615,26.7549063 L116.799846,26.7549063 L116.733265,27.1742813 L116.733265,27.1742813 Z M119.275966,26.7549062 L119.972615,26.7549062 L120.82065,29.2333437 L122.356923,26.7549062 L123.040256,26.7549062 L119.568923,32.1545312 L118.88559,32.1545312 L120.392427,29.8885312 L119.275966,26.7549062 L119.275966,26.7549062 Z" id="Shape"></path>
                                <path d="M7.608,16 C10.824,16 12.792,14.584 12.792,12.04 C12.792,10.432 11.616,9.256 9.96,8.8 C11.112,8.344 12.024,7.384 12.024,5.824 C12.024,3.448 10.224,2.08 7.272,2.08 L0.84,2.08 L0.84,4.12 L2.448,4.12 L2.448,13.96 L0.84,13.96 L0.84,16 L7.608,16 L7.608,16 Z M4.656,9.88 L7.224,9.88 C9.432,9.88 10.56,10.6 10.56,11.92 C10.56,13.264 9.504,13.96 7.392,13.96 L4.656,13.96 L4.656,9.88 L4.656,9.88 Z M7.032,4.12 C8.832,4.12 9.792,4.768 9.792,6.016 C9.792,7.24 8.856,7.912 7.056,7.912 L4.656,7.912 L4.656,4.12 L7.032,4.12 L7.032,4.12 Z M26.776,8.176 C26.416,6.568 25.192,5.44 23.224,5.44 C21.472,5.44 20.152,6.304 19.504,7.504 L19.504,5.776 L15.64,5.776 L15.64,7.816 L17.416,7.816 L17.416,13.96 L15.16,13.96 L15.16,16 L23.08,16 L23.08,13.96 L19.528,13.96 L19.528,11.32 C19.528,8.824 21.28,7.456 23.128,7.456 C23.92,7.456 24.52,7.936 24.76,8.752 L26.776,8.176 L26.776,8.176 Z M33.728,9.64 C31.472,9.64 29,10.6 29,13.12 C29,15.256 30.824,16.336 32.936,16.336 C34.4,16.336 35.888,15.808 36.44,14.92 L36.44,16 L40.088,16 L40.088,13.96 L38.6,13.96 L38.6,9.4 C38.6,6.808 36.608,5.44 34.04,5.44 C31.976,5.44 30.608,6.256 29.648,7.144 L31.04,8.656 C31.856,7.912 32.864,7.432 34.04,7.432 C35.288,7.432 36.44,8.032 36.44,9.472 L36.44,10.048 C35.744,9.856 34.832,9.64 33.728,9.64 L33.728,9.64 L33.728,9.64 Z M36.44,12.16 C36.44,13.6 34.688,14.44 33.128,14.44 C32,14.44 31.184,14.008 31.184,13.096 C31.184,11.872 32.48,11.44 33.824,11.44 C34.76,11.44 35.768,11.632 36.44,11.872 L36.44,12.16 L36.44,12.16 Z M49.416,13.96 L49.416,5.776 L44.04,5.776 L44.04,7.816 L47.304,7.816 L47.304,13.96 L43.032,13.96 L43.032,16 L53.352,16 L53.352,13.96 L49.416,13.96 L49.416,13.96 Z M49.416,0.616 L47.04,0.616 L47.04,3.736 L49.416,3.736 L49.416,0.616 L49.416,0.616 Z M55.696,16 L61,16 L61,13.96 L59.368,13.96 L59.368,10.552 C59.368,8.704 60.976,7.504 62.584,7.504 C63.568,7.504 64.648,8.008 64.648,9.784 L64.648,13.96 L63.016,13.96 L63.016,16 L68.32,16 L68.32,13.96 L66.76,13.96 L66.76,9.208 C66.76,6.88 65.128,5.44 62.848,5.44 C61.264,5.44 59.968,6.088 59.344,7.096 L59.344,5.776 L55.792,5.776 L55.792,7.816 L57.256,7.816 L57.256,13.96 L55.696,13.96 L55.696,16 L55.696,16 Z M72.464,12.184 C72.464,14.92 74.384,16.336 76.952,16.336 C78.944,16.336 80.384,15.4 81.32,14.392 L79.904,12.928 C79.16,13.672 78.152,14.344 76.952,14.344 C75.68,14.344 74.576,13.696 74.576,12.112 L74.576,7.816 L79.544,7.816 L79.544,5.776 L74.576,5.776 L74.576,2.08 L72.464,2.08 L72.464,5.776 L69.8,5.776 L69.8,7.816 L72.464,7.816 L72.464,12.184 L72.464,12.184 Z M95.376,8.176 C95.016,6.568 93.792,5.44 91.824,5.44 C90.072,5.44 88.752,6.304 88.104,7.504 L88.104,5.776 L84.24,5.776 L84.24,7.816 L86.016,7.816 L86.016,13.96 L83.76,13.96 L83.76,16 L91.68,16 L91.68,13.96 L88.128,13.96 L88.128,11.32 C88.128,8.824 89.88,7.456 91.728,7.456 C92.52,7.456 93.12,7.936 93.36,8.752 L95.376,8.176 L95.376,8.176 Z M106.96,12.952 C106.24,13.744 104.92,14.368 103.384,14.368 C101.536,14.368 100.12,13.336 99.76,11.632 L108.568,11.632 L108.568,11.272 C108.568,7.912 106.312,5.44 103.096,5.44 C99.856,5.44 97.528,7.744 97.528,10.888 C97.528,14.032 99.928,16.336 103.36,16.336 C105.448,16.336 107.32,15.544 108.376,14.44 L106.96,12.952 L106.96,12.952 Z M103.096,7.384 C104.536,7.384 105.832,8.368 106.144,9.832 L99.856,9.832 C100.216,8.392 101.464,7.384 103.096,7.384 L103.096,7.384 L103.096,7.384 Z M120.68,12.952 C119.96,13.744 118.64,14.368 117.104,14.368 C115.256,14.368 113.84,13.336 113.48,11.632 L122.288,11.632 L122.288,11.272 C122.288,7.912 120.032,5.44 116.816,5.44 C113.576,5.44 111.248,7.744 111.248,10.888 C111.248,14.032 113.648,16.336 117.08,16.336 C119.168,16.336 121.04,15.544 122.096,14.44 L120.68,12.952 L120.68,12.952 Z M116.816,7.384 C118.256,7.384 119.552,8.368 119.864,9.832 L113.576,9.832 C113.936,8.392 115.184,7.384 116.816,7.384 L116.816,7.384 L116.816,7.384 Z" id="Braintree"></path>
                            </g>
                        </g>
                    </g>
                </g>
            </g>
        </g>
    </g>
</svg>