<?xml version="1.0" encoding="utf-8"?>
<!DOCTYPE svg PUBLIC "-//W3C//DTD SVG 1.1//EN" "http://www.w3.org/Graphics/SVG/1.1/DTD/svg11.dtd">
<svg width="20px" height="20px" viewBox="0 0 20 20" version="1.1" xmlns="http://www.w3.org/2000/svg" xmlns:xlink="http://www.w3.org/1999/xlink">
  <g id="Final" stroke="none" stroke-width="1" fill="none" fill-rule="evenodd">
  <path d="M16.2,2l-2.7,1.3c-0.4-0.2-0.9-0.4-1.3-0.6L11.3,0L8.8,0L7.8,2.8C7.3,3,6.9,3.2,6.5,3.4L3.8,2L2,3.8l1.3,2.7C3.2,6.9,3,7.3,2.8,7.8L0,8.8l0,2.5l2.8,0.9c0.1,0.5,0.3,0.9,0.6,1.3L2,16.2L3.8,18l2.7-1.3c0.4,0.2,0.9,0.4,1.3,0.6L8.8,20l2.5,0l0.9-2.8c0.5-0.1,0.9-0.3,1.3-0.6l2.7,1.3l1.8-1.8l-1.3-2.7c0.2-0.4,0.4-0.9,0.6-1.3l2.8-0.9l0-2.5l-2.8-0.9c-0.1-0.5-0.3-0.9-0.6-1.3L18,3.8L16.2,2z M10,13c-1.7,0-3-1.3-3-3s1.3-3,3-3s3,1.3,3,3c0,0.8-0.3,1.6-0.9,2.1C11.6,12.7,10.8,13,10,13z" id="Settings-Icon" fill="#000000" fill-rule="nonzero"></path>
  </g>
</svg>
	