<?xml version="1.0" encoding="utf-8"?>
<!DOCTYPE svg PUBLIC "-//W3C//DTD SVG 1.1//EN" "http://www.w3.org/Graphics/SVG/1.1/DTD/svg11.dtd">
<svg id="icon-discover" viewBox="0 0 40 24" width="100%" height="100%" xmlns="http://www.w3.org/2000/svg" xmlns:xlink="http://www.w3.org/1999/xlink">
      <title>Discover</title>
      <path
		d="M38.995 11.75S27.522 20.1 6.5 23.5h31.495c.552 0 1-.448 1-1V11.75z"
		style="fill: #F48024"></path>
      <path
		d="M5.332 11.758c-.338.305-.776.438-1.47.438h-.29V8.55h.29c.694 0 1.115.124 1.47.446.37.33.595.844.595 1.372 0 .53-.224 1.06-.595 1.39zM4.077 7.615H2.5v5.515h1.57c.833 0 1.435-.197 1.963-.637.63-.52 1-1.305 1-2.116 0-1.628-1.214-2.762-2.956-2.762zM7.53 13.13h1.074V7.616H7.53M11.227 9.732c-.645-.24-.834-.397-.834-.695 0-.347.338-.61.8-.61.322 0 .587.132.867.446l.562-.737c-.462-.405-1.015-.612-1.618-.612-.975 0-1.718.678-1.718 1.58 0 .76.346 1.15 1.355 1.513.42.148.635.247.743.314.215.14.322.34.322.57 0 .448-.354.78-.834.78-.51 0-.924-.258-1.17-.736l-.695.67c.495.726 1.09 1.05 1.907 1.05 1.116 0 1.9-.745 1.9-1.812 0-.876-.363-1.273-1.585-1.72zM13.15 10.377c0 1.62 1.27 2.877 2.907 2.877.462 0 .858-.09 1.347-.32v-1.267c-.43.43-.81.604-1.297.604-1.082 0-1.85-.785-1.85-1.9 0-1.06.792-1.895 1.8-1.895.512 0 .9.183 1.347.62V7.83c-.472-.24-.86-.34-1.322-.34-1.627 0-2.932 1.283-2.932 2.887zM25.922 11.32l-1.468-3.705H23.28l2.337 5.656h.578l2.38-5.655H27.41M29.06 13.13h3.046v-.934h-1.973v-1.488h1.9v-.934h-1.9V8.55h1.973v-.935H29.06M34.207 10.154h-.314v-1.67h.33c.67 0 1.034.28 1.034.818 0 .554-.364.852-1.05.852zm2.155-.91c0-1.033-.71-1.628-1.95-1.628H32.82v5.514h1.073v-2.215h.14l1.487 2.215h1.32l-1.733-2.323c.81-.165 1.255-.72 1.255-1.563z"
		style="fill: #221F20"></path>
      <path
		d="M23.6 10.377c0 1.62-1.31 2.93-2.927 2.93-1.617.002-2.928-1.31-2.928-2.93s1.31-2.932 2.928-2.932c1.618 0 2.928 1.312 2.928 2.932z"
		style="fill: #F48024"></path>
    </svg>