<?xml version="1.0" encoding="utf-8"?>
<!DOCTYPE svg PUBLIC "-//W3C//DTD SVG 1.1//EN" "http://www.w3.org/Graphics/SVG/1.1/DTD/svg11.dtd">
<svg id="icon-master-card" viewBox="0 0 40 24" width="100%"
	height="100%" style="background: transparent" xmlns="http://www.w3.org/2000/svg" xmlns:xlink="http://www.w3.org/1999/xlink">
      <title>MasterCard</title>
      <path
		d="M11.085 22.2v-1.36c0-.522-.318-.863-.864-.863-.272 0-.568.09-.773.386-.16-.25-.386-.386-.727-.386-.228 0-.455.068-.637.318v-.272h-.478V22.2h.478v-1.202c0-.386.204-.567.523-.567.318 0 .478.205.478.568V22.2h.477v-1.202c0-.386.23-.567.524-.567.32 0 .478.205.478.568V22.2h.523zm7.075-2.177h-.774v-.658h-.478v.658h-.432v.43h.432v.998c0 .5.205.795.75.795.206 0 .433-.068.592-.16l-.136-.407c-.136.09-.296.114-.41.114-.227 0-.318-.137-.318-.363v-.976h.774v-.43zm4.048-.046c-.273 0-.454.136-.568.318v-.272h-.478V22.2h.478v-1.225c0-.363.16-.567.455-.567.09 0 .204.023.295.046l.137-.454c-.09-.023-.228-.023-.32-.023zm-6.118.227c-.228-.16-.546-.227-.888-.227-.546 0-.91.272-.91.703 0 .363.274.567.75.635l.23.023c.25.045.385.113.385.227 0 .16-.182.272-.5.272-.32 0-.57-.113-.728-.227l-.228.363c.25.18.59.272.932.272.637 0 1-.295 1-.703 0-.385-.295-.59-.75-.658l-.227-.022c-.205-.023-.364-.068-.364-.204 0-.16.16-.25.41-.25.272 0 .545.114.682.182l.205-.386zm12.692-.227c-.273 0-.455.136-.568.318v-.272h-.478V22.2h.478v-1.225c0-.363.16-.567.455-.567.09 0 .203.023.294.046L29.1 20c-.09-.023-.227-.023-.318-.023zm-6.096 1.134c0 .66.455 1.135 1.16 1.135.32 0 .546-.068.774-.25l-.228-.385c-.182.136-.364.204-.57.204-.385 0-.658-.272-.658-.703 0-.407.273-.68.66-.702.204 0 .386.068.568.204l.228-.385c-.228-.182-.455-.25-.774-.25-.705 0-1.16.477-1.16 1.134zm4.413 0v-1.087h-.48v.272c-.158-.204-.385-.318-.68-.318-.615 0-1.093.477-1.093 1.134 0 .66.478 1.135 1.092 1.135.317 0 .545-.113.68-.317v.272h.48v-1.09zm-1.753 0c0-.384.25-.702.66-.702.387 0 .66.295.66.703 0 .387-.273.704-.66.704-.41-.022-.66-.317-.66-.703zm-5.71-1.133c-.636 0-1.09.454-1.09 1.134 0 .682.454 1.135 1.114 1.135.32 0 .638-.09.888-.295l-.228-.34c-.18.136-.41.227-.636.227-.296 0-.592-.136-.66-.522h1.615v-.18c.022-.704-.388-1.158-1.002-1.158zm0 .41c.297 0 .502.18.547.52h-1.137c.045-.295.25-.52.59-.52zm11.852.724v-1.95h-.48v1.135c-.158-.204-.385-.318-.68-.318-.615 0-1.093.477-1.093 1.134 0 .66.478 1.135 1.092 1.135.318 0 .545-.113.68-.317v.272h.48v-1.09zm-1.752 0c0-.384.25-.702.66-.702.386 0 .66.295.66.703 0 .387-.274.704-.66.704-.41-.022-.66-.317-.66-.703zm-15.97 0v-1.087h-.476v.272c-.16-.204-.387-.318-.683-.318-.615 0-1.093.477-1.093 1.134 0 .66.478 1.135 1.092 1.135.318 0 .545-.113.682-.317v.272h.477v-1.09zm-1.773 0c0-.384.25-.702.66-.702.386 0 .66.295.66.703 0 .387-.274.704-.66.704-.41-.022-.66-.317-.66-.703z"
		style="fill: #000"></path>
      <path style="fill: #FF5F00" d="M23.095 3.49H15.93v12.836h7.165"></path>
      <path
		d="M16.382 9.91c0-2.61 1.23-4.922 3.117-6.42-1.39-1.087-3.14-1.745-5.05-1.745-4.528 0-8.19 3.65-8.19 8.164 0 4.51 3.662 8.162 8.19 8.162 1.91 0 3.66-.657 5.05-1.746-1.89-1.474-3.118-3.81-3.118-6.417z"
		style="fill: #EB001B"></path>
      <path
		d="M32.76 9.91c0 4.51-3.664 8.162-8.19 8.162-1.91 0-3.662-.657-5.05-1.746 1.91-1.496 3.116-3.81 3.116-6.417 0-2.61-1.228-4.922-3.116-6.42 1.388-1.087 3.14-1.745 5.05-1.745 4.526 0 8.19 3.674 8.19 8.164z"
		style="fill: #F79E1B"></path>
    </svg>