<?xml version="1.0" encoding="UTF-8" standalone="no"?>
<svg
   xmlns:dc="http://purl.org/dc/elements/1.1/"
   xmlns:cc="http://creativecommons.org/ns#"
   xmlns:rdf="http://www.w3.org/1999/02/22-rdf-syntax-ns#"
   xmlns:svg="http://www.w3.org/2000/svg"
   xmlns="http://www.w3.org/2000/svg"
   viewBox="0 0 920.49335 519.78668"
   height="519.78668"
   width="920.49335"
   xml:space="preserve"
   id="svg2"
   version="1.1"><metadata
     id="metadata8"><rdf:RDF><cc:Work
         rdf:about=""><dc:format>image/svg+xml</dc:format><dc:type
           rdf:resource="http://purl.org/dc/dcmitype/StillImage" /></cc:Work></rdf:RDF></metadata><defs
     id="defs6" /><g
     transform="matrix(1.3333333,0,0,-1.3333333,0,519.78667)"
     id="g10"><g
       transform="scale(0.1)"
       id="g12"><path
         id="path14"
         style="fill:#244666;fill-opacity:1;fill-rule:nonzero;stroke:none"
         d="m 4701.44,1549.2 c 0,0 -171.13,-35.13 -169.34,87.36 1.82,122.49 311.74,115.16 343.5,105.24 0,0 9.75,-138.99 -174.16,-192.6 z m 51.5,772.68 c -266.07,2.47 -390.46,-150.53 -390.46,-150.53 -80.79,-85.68 -28.99,-201.72 50.25,-210.1 113.87,-12.04 112.68,83.4 287.46,125.71 153.32,37.11 159.96,-104.93 159.96,-104.93 -653.9,16.26 -622.69,-532.47 -400.08,-649.01 213.46,-111.74 412.99,29.23 412.99,29.23 0,0 7.5,-75.94 113.11,-75.94 120.86,0 120.68,120.62 120.68,120.62 l -0.49,534.1 c -7.95,390.77 -353.42,380.85 -353.42,380.85" /><path
         id="path16"
         style="fill:#244666;fill-opacity:1;fill-rule:nonzero;stroke:none"
         d="m 6864.58,1501.98 -266.6,401.25 195.94,185.28 c 0,0 90.45,83.7 16.19,166.67 -82.28,91.89 -180.37,1.18 -180.37,1.18 l -246.21,-228.71 v 459.08 c 0,65.78 -53.3,119.06 -119.06,119.06 -65.82,0 -119.12,-53.28 -119.12,-119.06 V 1406.49 c 0,-65.76 53.3,-119.07 119.12,-119.07 65.76,0 119.06,53.31 119.06,119.07 v 287.59 l 45.04,44.98 241.19,-377.98 c 0,0 78.61,-131.24 194.4,-47.72 87.05,62.79 0.42,188.62 0.42,188.62" /><path
         id="path18"
         style="fill:#244666;fill-opacity:1;fill-rule:nonzero;stroke:none"
         d="m 6014,1940.98 c 0,390.2 -325.27,445.18 -546.47,321.4 -0.17,-0.14 -0.37,-0.57 -0.48,-0.69 -16.64,47.46 -61.37,81.78 -114.55,81.78 -67.21,0 -121.72,-54.54 -121.72,-121.8 v -813.56 c 0,-67.28 54.51,-121.8 121.72,-121.8 67.26,0 121.79,54.52 121.79,121.8 l -1.68,548.87 c 0,0 29.53,35.17 76.94,68.8 113.88,80.73 222.46,53.23 222.46,-84.75 l 2.79,-534.9 c 0,-66.23 53.61,-119.82 119.8,-119.82 66.14,0 119.75,53.59 119.75,119.82 l -0.35,534.85" /><path
         id="path20"
         style="fill:#51c7f2;fill-opacity:1;fill-rule:nonzero;stroke:none"
         d="m 2513.38,1270.68 c 27.89,46.6 32.75,79.42 32.75,79.42 l -274.98,718.73 c 0,0 -49.89,139.07 60.06,180.26 116.48,43.7 158.53,-67.56 167.28,-90.89 8.75,-23.33 173.73,-462.63 173.73,-462.63 l 158.84,461.62 c 0,0 45.5,143.53 172.73,92.34 105.14,-42.32 51.13,-183.1 51.13,-183.1 0,0 -162.56,-480.99 -298.82,-829.94 -81.39,-208.48 -150.9,-229.03 -230.32,-248.58 -106.29,-26.172 -307.25,-13.199 -307.25,118.96 0,104.24 106.72,110.74 154.87,109.19 2.58,-0.05 102.09,-8.67 139.98,54.62" /><path
         id="path22"
         style="fill:#51c7f2;fill-opacity:1;fill-rule:nonzero;stroke:none"
         d="m 1874.72,2478.86 -251.35,-693.52 -274.01,689.3 c 0,0 -40.61,130.67 -154.86,130.67 -132.38,0 -128.06,-104.86 -131.04,-130.67 -2.98,-25.83 0,-1077.89 0,-1077.89 0,0 -1.34,-110.44 120.12,-110.44 124.1,0 118.14,111.43 119.13,111.43 0.99,0 0,555.39 0,555.39 l 201.53,-555.39 c 0,0 29.77,-109.2 123.1,-107.21 93.32,1.97 120.12,107.21 120.12,107.21 l 168.78,554.39 v -554.39 c 0,0 0,-111.43 122.1,-111.43 118.13,0 118.13,111.43 118.13,111.43 l 0.17,1075.9 c 0,0 0,131.67 -128.23,131.04 -106.34,-0.5 -146.74,-102.44 -153.69,-125.82 -0.8,-2.73 -1.17,-4.22 -1.17,-4.22" /><path
         id="path24"
         style="fill:#51c7f2;fill-opacity:1;fill-rule:nonzero;stroke:none"
         d="M 6903.75,861.711 H 4782.36 l -1557.64,0.258 1.08,-1.731 C 2917.92,499.48 2460.64,270.031 1949.15,270.031 c -927.36,0 -1679.123,751.829 -1679.123,1679.179 0,927.36 751.763,1679.12 1679.123,1679.12 513.69,0 973.15,-230.75 1281.08,-594.16 H 3567.4 C 3217.52,3555.05 2623.8,3898.44 1949.15,3898.44 872.695,3898.44 0,3025.73 0,1949.21 0,872.691 872.695,0 1949.15,0 2513.87,0 3021.36,241.07 3377.13,624.941 l 3366.83,3.348 159.79,233.422" /><path
         id="path26"
         style="fill:#244666;fill-opacity:1;fill-rule:nonzero;stroke:none"
         d="m 3814.31,1521.71 h -338.83 v 322.96 h 338.83 c 81.95,-4.22 161.52,-45.92 161.52,-161.5 0,-118.69 -72.36,-161.46 -161.52,-161.46 z m -338.83,828.65 h 315.82 c 63.27,-1.63 129.67,-35.37 129.67,-129.69 0,-98.27 -58.06,-129.67 -129.67,-129.67 h -315.82 z m 605.77,-357.21 c 6.44,8.86 87.5,74.52 81.09,249.11 -12.91,353.48 -319.9,349.45 -387.85,351.51 -109.46,3.29 -175.35,1.97 -376.26,0 -169.64,-1.68 -168.4,-155.86 -168.4,-155.86 v -1151.6 c 0,0 305.4,0 571.83,0 306.01,0 419.84,168.46 419.84,403.99 0,236.96 -140.25,302.85 -140.25,302.85" /></g></g></svg>